HIERARCHY
ROOT Hips
{
	OFFSET -14.64140 90.27770 -84.91600
	CHANNELS 6 Xposition Yposition Zposition Zrotation Xrotation Yrotation
	JOINT Spine
	{
		OFFSET 0.00000 13.20850 -1.60436
		CHANNELS 3 Zrotation Xrotation Yrotation
		JOINT Spine1
		{
			OFFSET 0.00000 8.61716 0.00000
			CHANNELS 3 Zrotation Xrotation Yrotation
			JOINT Spine2
			{
				OFFSET 0.00000 8.61717 0.00000
				CHANNELS 3 Zrotation Xrotation Yrotation
				JOINT Spine3
				{
					OFFSET 0.00000 8.61717 0.00000
					CHANNELS 3 Zrotation Xrotation Yrotation
					JOINT Neck
					{
						OFFSET 0.00000 11.07920 1.10792
						CHANNELS 3 Zrotation Xrotation Yrotation
						JOINT Neck1
						{
							OFFSET 0.00000 7.08032 0.00000
							CHANNELS 3 Zrotation Xrotation Yrotation
							JOINT Head
							{
								OFFSET 0.00000 7.08031 0.00000
								CHANNELS 3 Zrotation Xrotation Yrotation
								End site
								{
									OFFSET 0.00000 0.00000 0.00000
								}
							}
						}
					}
					JOINT RightShoulder
					{
						OFFSET -0.01000 7.91373 5.19711
						CHANNELS 3 Zrotation Xrotation Yrotation
						JOINT RightArm
						{
							OFFSET -18.41580 0.00000 0.00000
							CHANNELS 3 Zrotation Xrotation Yrotation
							JOINT RightForeArm
							{
								OFFSET -29.11090 0.00000 0.00000
								CHANNELS 3 Zrotation Xrotation Yrotation
								JOINT RightHand
								{
									OFFSET -24.65040 0.00000 0.00000
									CHANNELS 3 Zrotation Xrotation Yrotation
									JOINT RightHandThumb1
									{
										OFFSET -5.35114 -0.85590 3.97906
										CHANNELS 3 Zrotation Xrotation Yrotation
										JOINT RightHandThumb2
										{
											OFFSET -4.52789 0.00000 0.00000
											CHANNELS 3 Zrotation Xrotation Yrotation
											JOINT RightHandThumb3
											{
												OFFSET -2.46976 0.00000 0.00000
												CHANNELS 3 Zrotation Xrotation Yrotation
												End site
												{
													OFFSET 0.00000 0.00000 0.00000
												}
											}
										}
									}
									JOINT RightHandIndex1
									{
										OFFSET -14.26970 0.00000 2.88139
										CHANNELS 3 Zrotation Xrotation Yrotation
										JOINT RightHandIndex2
										{
											OFFSET -5.48836 0.00000 0.00000
											CHANNELS 3 Zrotation Xrotation Yrotation
											JOINT RightHandIndex3
											{
												OFFSET -3.01859 0.00000 0.00000
												CHANNELS 3 Zrotation Xrotation Yrotation
												End site
												{
													OFFSET 0.00000 0.00000 0.00000
												}
											}
										}
									}
									JOINT RightHandMiddle1
									{
										OFFSET -14.26970 0.00000 -0.09147
										CHANNELS 3 Zrotation Xrotation Yrotation
										JOINT RightHandMiddle2
										{
											OFFSET -6.17441 0.00000 0.00000
											CHANNELS 3 Zrotation Xrotation Yrotation
											JOINT RightHandMiddle3
											{
												OFFSET -3.56743 0.00000 0.00000
												CHANNELS 3 Zrotation Xrotation Yrotation
												End site
												{
													OFFSET 0.00000 0.00000 0.00000
												}
											}
										}
									}
									JOINT RightHandRing1
									{
										OFFSET -12.69180 0.00000 -3.06433
										CHANNELS 3 Zrotation Xrotation Yrotation
										JOINT RightHandRing2
										{
											OFFSET -5.62556 0.00000 0.00000
											CHANNELS 3 Zrotation Xrotation Yrotation
											JOINT RightHandRing3
											{
												OFFSET -3.56744 0.00000 0.00000
												CHANNELS 3 Zrotation Xrotation Yrotation
												End site
												{
													OFFSET 0.00000 0.00000 0.00000
												}
											}
										}
									}
									JOINT RightHandPinky1
									{
										OFFSET -11.11390 0.00000 -6.03719
										CHANNELS 3 Zrotation Xrotation Yrotation
										JOINT RightHandPinky2
										{
											OFFSET -4.52789 0.00000 0.00000
											CHANNELS 3 Zrotation Xrotation Yrotation
											JOINT RightHandPinky3
											{
												OFFSET -2.46976 0.00000 0.00000
												CHANNELS 3 Zrotation Xrotation Yrotation
												End site
												{
													OFFSET 0.00000 0.00000 0.00000
												}
											}
										}
									}
								}
							}
						}
					}
					JOINT LeftShoulder
					{
						OFFSET 0.01000 7.91373 5.19711
						CHANNELS 3 Zrotation Xrotation Yrotation
						JOINT LeftArm
						{
							OFFSET 18.41580 0.00000 0.00000
							CHANNELS 3 Zrotation Xrotation Yrotation
							JOINT LeftForeArm
							{
								OFFSET 29.11090 0.00000 0.00000
								CHANNELS 3 Zrotation Xrotation Yrotation
								JOINT LeftHand
								{
									OFFSET 24.65040 0.00000 0.00000
									CHANNELS 3 Zrotation Xrotation Yrotation
									JOINT LeftHandThumb1
									{
										OFFSET 5.35114 -0.85590 3.97906
										CHANNELS 3 Zrotation Xrotation Yrotation
										JOINT LeftHandThumb2
										{
											OFFSET 4.52789 0.00000 0.00000
											CHANNELS 3 Zrotation Xrotation Yrotation
											JOINT LeftHandThumb3
											{
												OFFSET 2.46977 0.00000 0.00000
												CHANNELS 3 Zrotation Xrotation Yrotation
												End site
												{
													OFFSET 0.00000 0.00000 0.00000
												}
											}
										}
									}
									JOINT LeftHandIndex1
									{
										OFFSET 14.26970 0.00000 2.88139
										CHANNELS 3 Zrotation Xrotation Yrotation
										JOINT LeftHandIndex2
										{
											OFFSET 5.48836 0.00000 0.00000
											CHANNELS 3 Zrotation Xrotation Yrotation
											JOINT LeftHandIndex3
											{
												OFFSET 3.01859 0.00000 0.00000
												CHANNELS 3 Zrotation Xrotation Yrotation
												End site
												{
													OFFSET 0.00000 0.00000 0.00000
												}
											}
										}
									}
									JOINT LeftHandMiddle1
									{
										OFFSET 14.26970 0.00000 -0.09147
										CHANNELS 3 Zrotation Xrotation Yrotation
										JOINT LeftHandMiddle2
										{
											OFFSET 6.17440 0.00000 0.00000
											CHANNELS 3 Zrotation Xrotation Yrotation
											JOINT LeftHandMiddle3
											{
												OFFSET 3.56744 0.00000 0.00000
												CHANNELS 3 Zrotation Xrotation Yrotation
												End site
												{
													OFFSET 0.00000 0.00000 0.00000
												}
											}
										}
									}
									JOINT LeftHandRing1
									{
										OFFSET 12.69180 0.00000 -3.06433
										CHANNELS 3 Zrotation Xrotation Yrotation
										JOINT LeftHandRing2
										{
											OFFSET 5.62556 0.00000 0.00000
											CHANNELS 3 Zrotation Xrotation Yrotation
											JOINT LeftHandRing3
											{
												OFFSET 3.56744 0.00000 0.00000
												CHANNELS 3 Zrotation Xrotation Yrotation
												End site
												{
													OFFSET 0.00000 0.00000 0.00000
												}
											}
										}
									}
									JOINT LeftHandPinky1
									{
										OFFSET 11.11390 0.00000 -6.03719
										CHANNELS 3 Zrotation Xrotation Yrotation
										JOINT LeftHandPinky2
										{
											OFFSET 4.52789 0.00000 0.00000
											CHANNELS 3 Zrotation Xrotation Yrotation
											JOINT LeftHandPinky3
											{
												OFFSET 2.46976 0.00000 0.00000
												CHANNELS 3 Zrotation Xrotation Yrotation
												End site
												{
													OFFSET 0.00000 0.00000 0.00000
												}
											}
										}
									}
								}
							}
						}
					}
					JOINT pCube4
					{
						OFFSET 0.00000 10.91090 1.10792
						CHANNELS 3 Zrotation Xrotation Yrotation
						End site
						{
							OFFSET 0.00000 0.00000 0.00000
						}
					}
				}
			}
		}
	}
	JOINT RightUpLeg
	{
		OFFSET -9.98441 0.00000 0.00000
		CHANNELS 3 Zrotation Xrotation Yrotation
		JOINT RightLeg
		{
			OFFSET 0.00000 -42.11790 0.00000
			CHANNELS 3 Zrotation Xrotation Yrotation
			JOINT RightFoot
			{
				OFFSET 0.00000 -45.00020 -0.00001
				CHANNELS 3 Zrotation Xrotation Yrotation
				JOINT RightForeFoot
				{
					OFFSET 0.00000 -3.74820 0.00000
					CHANNELS 3 Zrotation Xrotation Yrotation
					JOINT RightToeBase
					{
						OFFSET 0.00000 0.06325 14.43120
						CHANNELS 3 Zrotation Xrotation Yrotation
						End site
						{
							OFFSET 0.00000 0.00000 0.00000
						}
					}
				}
			}
		}
	}
	JOINT LeftUpLeg
	{
		OFFSET 9.98441 0.00000 0.00000
		CHANNELS 3 Zrotation Xrotation Yrotation
		JOINT LeftLeg
		{
			OFFSET 0.00000 -42.11800 0.00000
			CHANNELS 3 Zrotation Xrotation Yrotation
			JOINT LeftFoot
			{
				OFFSET 0.00000 -45.00070 0.00000
				CHANNELS 3 Zrotation Xrotation Yrotation
				JOINT LeftForeFoot
				{
					OFFSET 0.00000 -3.74824 0.00000
					CHANNELS 3 Zrotation Xrotation Yrotation
					JOINT LeftToeBase
					{
						OFFSET 0.00000 0.06325 14.43110
						CHANNELS 3 Zrotation Xrotation Yrotation
						End site
						{
							OFFSET 0.00000 0.00000 0.00000
						}
					}
				}
			}
		}
	}
}
MOTION
Frames: 4
Frame Time: 0.050000
-0.04313770764762925 -0.03861351956545503 -0.012276689976339978 0.010572079095324809 0.047203520192971714 -0.013098280209913802 -2.470410081107395 1.8049439928711506 -0.7234527764134202 -0.9707277174341253 3.693583916376662 0.4001426507698615 -1.1636874760507387 -1.589182942589841 -0.04396701333600339 -0.4344962418229144 0.020553655482732237 -0.727087190926984 -0.2288082057039085 12.787251979845028 0.21900654122930524 -0.18398990899197873 0.19789372503735161 -2.155291002609806 -0.1592838877974654 -14.581611721913934 -0.11031304239683416 -5.649991439759042 2.178162818506847 -13.098450432042757 61.86344988454376 0.3926205977479927 26.187000695812227 0.5261139721792973 -2.9443970692715236 99.29331861695806 9.818403400377443 -0.3460118032776156 -0.5417461949368538 4.522391911773154 -0.1697507833842536 -1.5609173950190902 -0.03972542989264198 0.034184743419072204 -56.242923111701685 -0.042931075776892307 -0.02156534604093838 -56.23407704794647 -38.73394956673797 0.015018912770735172 0.006891311926080897 0.0005859215371394814 -0.002684367830261 0.009977594963019285 -0.04426090030502726 0.01674790667991904 0.039417554460973336 -36.74146892864593 0.02260351398419185 -0.035657083653022593 0.014403270610785703 0.022685566362670117 -0.03819110149424329 -0.015236100341063308 -0.04346951824177989 0.011197040062214407 -19.80096893172839 0.013512759760903565 0.03844056467136345 -0.015007621159731246 -0.030064820650593495 -0.034240684250809963 0.02978670027825916 -0.014339920758400229 -0.043519512109510466 24.087573943213 -0.015780067633787444 -0.030960430742139233 28.906611171524947 0.03847341302546176 -0.0012439469192843452 28.881638416495655 0.012046287902625434 0.030491629839641564 6.199236361787664 1.5049624519238636 12.51489340150867 -63.786973334589185 13.622395483336096 -19.503716014199664 -3.6082860326220487 -7.838556425030085 -85.70039474163825 -3.5106130013477683 1.6712691978657357 -3.022411112625234 -0.483051050179288 0.044875857423693266 -8.096833977171526 -0.0059676206065181975 -0.039433385174496946 44.600230397955166 0.02939120316620596 0.03004738580496365 44.5844636633731 12.411320444001763 -0.016216548803378906 0.045128436924849614 0.02696100411755751 0.02787895406217241 -0.02663255819513726 -0.044857812542145645 0.04634497545897119 0.027389189620190553 11.130102229562768 0.019071359914855243 0.015557045794052028 -0.021017445903881507 0.04050917093052173 -0.009625685262284349 -0.020328741728745887 0.009161796612395101 0.03306871661512876 4.7786777484529175 0.0019808754019699257 0.024870336463512478 0.04242593205846437 0.00866712510728963 -0.04502628988032688 -0.004478893837578624 -0.01738403012167365 0.0016434179285713816 -5.558415979082744 0.016479669917763153 -0.007186666804264148 -6.685259991268693 -0.04264192313032819 0.026412148804164152 -6.760994631850437 0.03649445293208151 -0.011826331131603059 -0.003472307275225053 -0.013169065079492776 0.04818322855147246 8.042257786209177 3.541740552593696 -19.240578702658734 -0.047457542544005187 10.418434906914845 -0.009545531407550722 -5.637545067813505 -15.638648621498431 3.2387568062492074 0.0476055170606063 -0.03733639190269192 0.020296117530262132 -0.006751381225077123 4.695907306365306 0.009320399636809315 12.48313895055358 -8.205927720081922 6.85773554098261 -0.03553346000199352 46.34979602343111 0.03726058179263614 -4.365927552644117 -14.747351186397253 -3.8375670178958643 -0.028802893411952062 -0.02176484409493588 -0.032690963413510174 -0.03746655750460193 -10.742117392973807 0.03338841881810862 
0.019183748736515488 0.03287578908357502 -0.037423162108666676 0.04154139584180358 0.03772700723247679 -0.03356087732964703 -2.548202718834878 2.3259757209359457 -0.7064796694089557 -0.9021603458017173 3.644064004656686 0.3578404212119622 -1.1886659809983082 -1.418070126970012 -0.09805523370834024 -0.4111361076460416 0.04180618126902832 -0.7478267518517704 -0.22306089316646677 12.532849876318226 0.30468095071713547 -0.20852588661611404 0.036966465461977474 -2.1782533855226367 -0.21000678352744273 -14.649293432485127 -0.16567419853352824 -5.043999365858403 2.020901929321604 -12.899291626240611 61.938762113861934 0.7769483566185487 25.610764158006933 1.204909262903653 -2.090695436584957 97.33021199215561 10.485003829191616 -0.3700913142227999 -1.0224177229031144 4.538962634212922 -0.10533781822290457 -1.5577785934958752 -0.031924520961136384 -0.012145915047292713 -56.27169431834933 0.01834397456425894 -0.018637223242144032 -56.204832110273074 -38.76371839248929 0.025929281657808702 -0.008929439426249356 0.00041168279403605736 0.013870403832223184 -0.03644925387594651 0.040258179991350194 -0.003589864973309269 -0.027416608951561477 -36.73158954181878 -0.005004854210979624 0.005324113554043007 -0.036912694040247405 -0.014232570395338867 -0.019340975110324884 -0.03455037201952681 -0.03724909005155887 0.01627234618503814 -19.756711962245955 -0.03673978871219801 0.04939162069323293 0.04225722063070119 -0.026057192490720207 0.02310786547604937 -0.04718657812867968 0.028247185779616598 -0.032932469084982964 24.10036833048851 0.0014285407443575143 0.009276952617469705 28.91268368503521 0.003147827768095734 -0.006930975573526934 28.860843009721403 0.025355542567729854 0.03539386886369076 5.878448006781804 1.4516828683834508 12.344382121206817 -62.93756160372343 13.496462522456227 -20.776967318518874 -3.847916641785301 -6.756181326536933 -86.69768684646048 -4.052278000446994 1.4945383451000354 -3.054279668940401 -0.514302165028949 0.06894292286563779 -8.112115556892302 0.024490041492911018 -0.03273665688901486 44.58046857050632 0.02588203755346106 0.023458385962326248 44.574896377286755 12.447467877503554 0.036078738704578894 0.039349751746113125 0.025941416945805224 0.023362325659574603 -0.012619033812877626 0.044484984635932076 -0.01152100890929226 0.0011267151137638726 11.140922618115546 -0.013572997521055646 0.041489368950019555 -0.005041760955257575 -0.0038709438645173236 -0.0061217778268217865 -0.018353261643107938 -0.027410432651103534 -0.039239979928112734 4.725398039951294 0.048355501611559076 -0.004502273948121887 -0.002416779379597904 0.005472478040951482 0.047938951811233435 0.014595670660508625 -0.047805230629201174 0.044112021888488166 -5.574224137524207 0.0008349603762055245 0.037327904511380905 -6.6744606088660134 -0.03388738193811499 0.02999939915294433 -6.769045197989244 0.009477560283555382 -0.0025798306466935923 0.015460374112737109 0.015825422598285812 -0.0010267066656879148 8.03763251495439 3.4885001047203374 -19.178817843157344 0.032334098064713906 10.35662587382097 0.00043863177875276896 -5.622747138753095 -15.650849863874917 3.20381158344728 -0.0015767898727610473 -0.042303212408987156 0.03807022542428825 0.040257783276234575 4.742487664244577 0.028556448214702167 12.47973232508858 -8.232563920981715 6.887709422770275 -0.016759576107935298 46.34531940483023 -0.022174254900114116 -4.286646833734498 -14.776020451061168 -3.802282327543953 0.041149411307703346 -0.03107416382718041 0.019025673286573615 -0.009558478132979166 -10.76388911283046 -0.03553319794216791 
-0.00793487149043582 -0.016238706644324422 0.006320744933820572 0.04336749072453877 0.042106715055753974 0.00977730660095389 -2.784958399526675 2.924857177808746 -0.6711957415112302 -0.9435834413437266 3.6269221979891118 0.4148916142385193 -1.1032276414735627 -1.2454739769639007 -0.1980553433726947 -0.2825425482400098 0.14974205024201523 -0.7042897720788874 -0.30766790945149664 12.041882153467505 0.3082051160090815 -0.2939313811249555 -0.08940176290903126 -2.2923916954514705 -0.2862977179661823 -14.817942155634471 -0.14159295897233545 -4.0472936694172414 1.7661334029920475 -12.648137129086765 62.09901261555681 1.9487822433066548 24.916271815632154 1.671487807797546 -1.1455924309957328 94.79829835445054 11.464716202768516 -0.35122687048946755 -1.6875380068275274 4.532862822640797 -0.13786616602716806 -1.5904843030979965 -0.01549643333157041 -0.004483827546080067 -56.20655518883928 0.01867621646355636 -0.04074530162596765 -56.22627719924088 -38.81917242361816 0.014177420655131091 0.03696927930855164 -0.004976520494978157 0.01438085658845974 0.02473738223589695 -0.011576572021438365 0.03469345803874748 -0.021069607493417616 -36.676684916195676 -0.04554488779756305 -0.036697172084539244 0.02444313524692432 0.010872045535914504 -0.013504209967456021 -0.027277210190266406 0.03943078687039006 -0.020429845242053706 -19.76684327188926 -0.036060504921011205 -0.0002727404096917918 0.028897154065893976 0.024378485321205366 -0.00690744140179685 -0.03404645050832403 0.0434844640470437 -0.0014428517337828298 24.053120252914667 0.002810965941149443 -0.0008217067256666885 28.900899225005663 -0.00776801482264998 -0.013281204308988784 28.907389769094674 0.02044480837787403 -0.016232703810088442 5.068565303573871 1.337920171263284 12.070470782721882 -62.09545970672282 14.109976959490359 -21.435586696464753 -3.394232443925555 -6.101177220919829 -86.62616475226595 -4.865383302091222 1.5381719569388543 -2.796816650142015 -0.45479763887298974 0.06296210891229305 -8.163009445419501 0.024965426599016273 0.000187948646944444 44.55015334280496 0.013653011959667824 -0.036819508540020474 44.53049599193272 12.422966993534335 -0.025128965228186955 -0.03020472742863088 -0.027571817909832323 -0.04509064552401046 0.04503329482759634 -0.012896975673707341 -0.010685536098820081 0.03519579202607994 11.085200525410611 0.035070343665381344 0.030590807530101696 0.010159341737151401 0.04676943790349232 -0.007003539200850142 0.006559358605416428 0.03328134385421716 -0.031149910268394244 4.746087432618857 -0.005156707050716766 -0.004097112856151897 0.04625230159661531 -0.02425196090584173 0.03988159064006188 -0.043210906504760234 0.028996542310559058 -0.034481311379584476 -5.573872935624268 -0.0408033615078944 0.030497115589218606 -6.763018559804613 0.016033203620989405 -0.0025627998837194476 -6.6728242501980795 -0.03869312840934489 0.010211365872481743 -0.024556841141849275 0.04282023251812729 -0.004613472208734609 8.02369395603032 3.487358856594758 -19.246110173757458 -0.04052697241408257 10.367133919923884 0.02605837851616066 -5.613959249505793 -15.646213082793517 3.171789675808586 -0.012163942875785821 0.022502053351787572 -0.005808691324509157 -0.0352129790548255 4.689150493024145 -0.039271185587513545 12.415398358691421 -8.223383355506577 6.845718155983594 0.04731171125337363 46.350632002311 0.021471244284870423 -4.330093085961692 -14.772574131802612 -3.851204620771468 0.026705124587691555 0.027523101376259886 -0.0071256040895344465 -0.023110545639268634 -10.740909935000023 -0.015267085486608368 
-0.018053707842817544 -0.013755159172149546 -0.027983554545238282 0.006972856904960881 -0.003803290419849348 0.04295344705696575 -3.221153000317803 3.751795133662979 -0.663336957731185 -1.0082675190169363 3.702504854344847 0.44061967540590663 -1.1389290695772971 -0.9759967629813451 -0.23876248845042503 -0.2196983105247507 0.25165309860478074 -0.7890896225750087 -0.3960517615253566 11.558213074456742 0.2211111705386732 -0.29994819651063187 -0.3147635679197335 -2.564586891644976 -0.2528967710460583 -14.997474028541639 -0.14033506472020424 -2.928948816227566 1.4041996493169602 -12.388146826081794 61.7789203657515 3.359649004951138 24.57656683726161 1.8376993950688614 -0.10356922416326352 92.39746661914944 12.660597376145024 -0.4316120881679223 -2.552226545002701 4.52679891062452 -0.14249657603889795 -1.6066177747079606 -0.0034309847377938132 -0.04746877045984069 -56.20107576861505 0.013736081492114393 0.027688721045079485 -56.24324850783334 -38.75734797347692 -0.03181501493876931 0.04655489232113143 -0.030007722580220907 0.020585873124706073 0.031200652507419206 -0.004656505745089907 -0.016555908277590185 -0.022110283627141736 -36.68026357099285 0.0007995969658464113 0.009804908320354515 -0.0328237105460842 -0.028557071866152278 0.021979731056534817 -0.013262712347332912 -0.005800098824072754 -0.043688569564177146 -19.80369590699786 -0.01205120050967478 -0.03951845626109531 0.04616043628826846 0.043611298177354756 -0.016444519726109233 0.04208227042955578 -0.015838572291917763 -0.02098706281233517 24.039952132179764 0.02716474081154475 -0.030407556077839976 28.86669997621279 -0.016062667443497245 -0.023743164033161106 28.827893798976906 0.0011908406754000734 -0.005816479221993625 3.915541364042491 1.1764071330286578 11.805343421693527 -60.9854544437201 15.090627605475609 -21.807353788072298 -2.469547090077797 -5.595498137374348 -85.6760158893932 -5.7815570705695425 1.4578763270017794 -2.501569457347661 -0.48848343902336383 0.08295559579346773 -8.104419677298303 0.047486262951599474 -0.03389691335326828 44.54662700435663 -0.013734845160584918 -0.0029350156126897145 44.522693981494484 12.475984691749426 0.007208438230596034 -0.017599161904200984 0.031101466873698254 -0.029043590938855855 -0.006940571151602196 -0.03876319309683131 -0.03484062385029381 0.021324303489401588 11.131203442022928 -0.008022222592781098 -0.04396517108197963 0.009809523621838585 0.02342991857086643 -0.014800004436214199 0.02847490014175745 0.015685106929005672 0.03335813128983801 4.73515450623447 -0.046386484722857994 0.02652016468330326 0.03861562113393828 0.011938893560816188 -0.017357855802570207 0.021105258122281013 -0.016346820999659197 -0.04053200413867776 -5.576690981368692 -0.0025439228627146524 0.000453761677912948 -6.714151358357059 0.017795326379976162 -0.040660717730672036 -6.716794362035452 0.0031752156707571598 -0.012239371584086651 0.01587009607489012 -0.038092326155187366 0.03879811257222266 8.00959172804771 3.4768197293446788 -19.249105899942034 0.022970270877337447 10.40221539833983 0.05155840864947438 -5.626754345297733 -15.702278930298176 3.1731311353122056 -0.011004327315504344 -0.0164168696543593 0.04704579372188195 -0.0449113240353996 4.725905427839131 -0.006768127222044904 12.454870587963429 -8.232450311584921 6.841620796952076 -0.010745598908170513 46.42741390174877 0.032741678817722435 -4.328940264942109 -14.739391239565625 -3.793026328523798 0.000783872240157718 -0.0330192308132824 -0.029955384224184704 -0.03725235969144631 -10.775272916575567 0.0010777176233991979 
